<?xml version="1.0" encoding="UTF-8" standalone="no"?>
<!DOCTYPE svg PUBLIC "-//W3C//DTD SVG 1.1//EN" "http://www.w3.org/Graphics/SVG/1.1/DTD/svg11.dtd">
<svg width="100%" height="100%" viewBox="0 0 834 2084" version="1.1" xmlns="http://www.w3.org/2000/svg" xmlns:xlink="http://www.w3.org/1999/xlink" xml:space="preserve" xmlns:serif="http://www.serif.com/" style="fill-rule:evenodd;clip-rule:evenodd;stroke-linejoin:round;stroke-miterlimit:2;">
    <g transform="matrix(1,0,0,1,-15653.2,-6552.53)">
        <g id="Train" transform="matrix(1,0,0,0.627226,6097.21,3350.57)">
            <rect x="9555.97" y="5104.95" width="833.333" height="3321.5" style="fill:none;"/>
            <clipPath id="_clip1">
                <rect x="9555.97" y="5104.95" width="833.333" height="3321.5"/>
            </clipPath>
            <g clip-path="url(#_clip1)">
                <g transform="matrix(4.63945,0,0,1.54968,8989.65,3130.9)">
                    <g transform="matrix(0.215543,0,0,1.02881,-1309.69,-5311.16)">
                        <path d="M6642.56,7442.28L6642.56,5162.45L7475.89,5162.45L7475.89,7442.41C7276.48,7442.38 7010.3,7442.3 6642.56,7442.28Z" style="fill:rgb(250,250,250);"/>
                    </g>
                    <g transform="matrix(0.143386,-2.04314e-16,7.12791e-17,-1.61027,-805.448,16203.2)">
                        <path d="M6625.26,8605.82C6574.47,8605.82 6522.29,8605.82 6468.67,8605.82L6468.67,10062.4L6625.26,10062.4L6625.26,8605.82ZM7564.78,8605.82L7564.78,10062.4L7721.37,10062.4L7721.37,8605.73C7721.37,8605.73 7721.37,8605.73 7721.36,8605.73L7670.76,8068.08C7664.05,7996.69 7525.93,7940.29 7357.84,7940.29L6832.21,7940.29C6664.11,7940.29 6526,7996.69 6519.28,8068.08L6468.67,8605.82L7564.78,8605.82Z" style="fill:rgb(250,250,250);"/>
                    </g>
                    <g transform="matrix(0.215543,0,0,1.02881,-1309.69,-5311.16)">
                        <path d="M6746.88,7442.28C6746.78,6908 6746.73,5878.7 6746.73,5878.7L7371.73,5878.7C7371.73,5878.7 7371.67,6908.14 7371.57,7442.39C7207.47,7442.36 7003.9,7442.31 6746.88,7442.28Z" style="fill:rgb(215,46,32);"/>
                    </g>
                    <g transform="matrix(0.215543,0,0,1.12289,-1309.69,-5796.84)">
                        <path d="M6850.89,7442.3C6817.18,7442.29 6782.47,7442.29 6746.73,7442.28L6746.73,5162.45L6850.89,5162.45L6850.89,7442.3ZM7371.73,7442.3C7338.65,7442.29 7303.96,7442.28 7267.56,7442.28L7267.56,5162.45L7371.73,5162.45L7371.73,7442.3ZM7371.73,7442.3L7348.48,7974.84C7344.01,8077.21 7252.13,8158.09 7140.31,8158.09L6978.14,8158.09C6866.32,8158.09 6774.44,8077.21 6769.98,7974.84L6746.73,7442.3L7371.73,7442.3Z" style="fill:rgb(215,46,32);"/>
                    </g>
                    <g transform="matrix(0.215543,0,0,1.33193,-1309.69,-6876.02)">
                        <path d="M7267.56,7442.37C7148.42,7442.35 7010.87,7442.32 6850.89,7442.3L6850.89,5162.45L7267.56,5162.45L7267.56,7442.37ZM7267.56,7442.37C7267.56,7511.33 7174.28,7567.24 7059.23,7567.24C6944.17,7567.24 6850.89,7511.33 6850.89,7442.37L7267.56,7442.37Z" style="fill:rgb(17,17,17);"/>
                    </g>
                    <g transform="matrix(0.1886,0,0,0.141014,-1119.49,1992.79)">
                        <path d="M6897.88,7442.3C6885.04,7442.3 6874.52,7377.3 6874.09,7295.37C6871.95,6886.85 6865.97,5739.96 6863.77,5319.51C6863.56,5278.34 6865.97,5238.38 6870.45,5208.77C6874.94,5179.16 6881.11,5162.45 6887.57,5162.45L7231.19,5162.45C7237.64,5162.45 7243.82,5179.16 7248.31,5208.77C7252.79,5238.38 7255.2,5278.34 7254.99,5319.51C7252.79,5739.97 7246.8,6886.9 7244.67,7295.44C7244.24,7377.36 7233.71,7442.37 7220.87,7442.37C7118.37,7442.34 7033.69,7442.32 6897.88,7442.3Z" style="fill:rgb(41,41,86);"/>
                    </g>
                    <g transform="matrix(0.117008,0,0,0.370326,-584.508,222.032)">
                        <path d="M6374.52,7957.01C6374.52,7928.25 6396,7904.93 6422.49,7904.93C6448.99,7904.93 6470.47,7928.25 6470.47,7957.01C6470.47,7957.01 6470.47,8102.09 6470.47,8165.37C6470.47,8181.36 6461.87,8194.31 6451.28,8194.31C6434.56,8194.31 6410.43,8194.31 6393.71,8194.31C6383.11,8194.31 6374.52,8181.36 6374.52,8165.37C6374.52,8102.09 6374.52,7957.01 6374.52,7957.01Z" style="fill:rgb(17,17,17);"/>
                    </g>
                    <g transform="matrix(0.117008,0,0,0.370326,-494.699,222.032)">
                        <path d="M6374.52,7957.01C6374.52,7928.25 6396,7904.93 6422.49,7904.93C6448.99,7904.93 6470.47,7928.25 6470.47,7957.01C6470.47,7957.01 6470.47,8102.09 6470.47,8165.37C6470.47,8181.36 6461.87,8194.31 6451.28,8194.31C6434.56,8194.31 6410.43,8194.31 6393.71,8194.31C6383.11,8194.31 6374.52,8181.36 6374.52,8165.37C6374.52,8102.09 6374.52,7957.01 6374.52,7957.01Z" style="fill:rgb(17,17,17);"/>
                    </g>
                    <g transform="matrix(0.0738182,0,0,0.74702,-279.763,-3247.61)">
                        <ellipse cx="7268.46" cy="8594.99" rx="54.748" ry="17.215" style="fill:rgb(41,41,86);"/>
                    </g>
                    <g transform="matrix(0.0738182,0,0,0.74702,-369.573,-3247.61)">
                        <ellipse cx="7268.46" cy="8594.99" rx="54.748" ry="17.215" style="fill:rgb(41,41,86);"/>
                    </g>
                    <g transform="matrix(0.0738182,0,0,0.74702,-279.763,-3187.6)">
                        <ellipse cx="7268.46" cy="8594.99" rx="54.748" ry="17.215" style="fill:rgb(41,41,86);"/>
                    </g>
                    <g transform="matrix(0.0738182,0,0,0.74702,-369.573,-3187.6)">
                        <ellipse cx="7268.46" cy="8594.99" rx="54.748" ry="17.215" style="fill:rgb(41,41,86);"/>
                    </g>
                    <g transform="matrix(0.0738182,0,0,0.74702,-279.763,-3217.61)">
                        <ellipse cx="7268.46" cy="8594.99" rx="54.748" ry="17.215" style="fill:rgb(215,100,32);"/>
                    </g>
                    <g transform="matrix(0.0738182,0,0,0.74702,-369.573,-3217.61)">
                        <ellipse cx="7268.46" cy="8594.99" rx="54.748" ry="17.215" style="fill:rgb(215,100,32);"/>
                    </g>
                </g>
            </g>
        </g>
    </g>
</svg>
